<svg xmlns="http://www.w3.org/2000/svg" width="1200" height="630" viewBox="0 0 1200 630" fill="none">
  <rect width="1200" height="630" fill="#F6F0E8"/>
  <rect x="40" y="40" width="1120" height="550" rx="36" fill="url(#bg)"/>
  <circle cx="929" cy="148" r="144" fill="url(#orbA)" fill-opacity="0.9"/>
  <circle cx="1018" cy="492" r="138" fill="url(#orbB)" fill-opacity="0.72"/>
  <g filter="url(#shadow)">
    <rect x="662" y="110" width="294" height="388" rx="34" fill="#221E19"/>
    <rect x="690" y="138" width="196" height="148" rx="24" fill="#322C25" stroke="#D7B47A" stroke-opacity="0.35"/>
    <g opacity="0.86">
      <rect x="706" y="156" width="34" height="40" rx="10" fill="#E8DCC8" fill-opacity="0.18"/>
      <rect x="747" y="156" width="34" height="40" rx="10" fill="#E8DCC8" fill-opacity="0.18"/>
      <rect x="788" y="156" width="34" height="40" rx="10" fill="#E8DCC8" fill-opacity="0.18"/>
      <rect x="829" y="156" width="34" height="40" rx="10" fill="#E8DCC8" fill-opacity="0.18"/>
      <rect x="706" y="204" width="34" height="40" rx="10" fill="#E8DCC8" fill-opacity="0.18"/>
      <rect x="747" y="204" width="34" height="40" rx="10" fill="#E8DCC8" fill-opacity="0.18"/>
      <rect x="788" y="204" width="34" height="40" rx="10" fill="#E8DCC8" fill-opacity="0.18"/>
      <rect x="829" y="204" width="34" height="40" rx="10" fill="#E8DCC8" fill-opacity="0.18"/>
    </g>
    <rect x="911" y="138" width="27" height="180" rx="13.5" fill="#D7B47A"/>
    <rect x="690" y="322" width="248" height="124" rx="24" fill="#2E2822" stroke="#D7B47A" stroke-opacity="0.2"/>
  </g>
  <g>
    <rect x="92" y="112" width="214" height="38" rx="19" fill="#FFFFFF" fill-opacity="0.64"/>
    <text x="122" y="137" fill="#675E55" font-family="Manrope, Arial, sans-serif" font-size="18" letter-spacing="4.8">DESTIN, FLORIDA</text>
    <text x="92" y="248" fill="#1C1A17" font-family="Georgia, serif" font-size="84" letter-spacing="-3.4">North Star</text>
    <text x="92" y="332" fill="#1C1A17" font-family="Georgia, serif" font-size="84" letter-spacing="-3.4">Vending</text>
    <text x="92" y="396" fill="#675E55" font-family="Manrope, Arial, sans-serif" font-size="28">Premium snack and beverage placements for offices,</text>
    <text x="92" y="437" fill="#675E55" font-family="Manrope, Arial, sans-serif" font-size="28">apartments, schools, gyms, and guest-facing properties.</text>
    <rect x="92" y="484" width="306" height="62" rx="31" fill="#1C1A17"/>
    <text x="126" y="523" fill="#F6F0E8" font-family="Manrope, Arial, sans-serif" font-size="24">Zero-capital machine programs</text>
  </g>
  <defs>
    <linearGradient id="bg" x1="40" y1="40" x2="1160" y2="590" gradientUnits="userSpaceOnUse">
      <stop stop-color="#FFF9F1"/>
      <stop offset="1" stop-color="#EFE3D1"/>
    </linearGradient>
    <radialGradient id="orbA" cx="0" cy="0" r="1" gradientUnits="userSpaceOnUse" gradientTransform="translate(929 148) rotate(90) scale(144)">
      <stop stop-color="#D8B47A" stop-opacity="0.74"/>
      <stop offset="1" stop-color="#D8B47A" stop-opacity="0"/>
    </radialGradient>
    <radialGradient id="orbB" cx="0" cy="0" r="1" gradientUnits="userSpaceOnUse" gradientTransform="translate(1018 492) rotate(90) scale(138)">
      <stop stop-color="#778565" stop-opacity="0.45"/>
      <stop offset="1" stop-color="#778565" stop-opacity="0"/>
    </radialGradient>
    <filter id="shadow" x="610" y="70" width="398" height="494" filterUnits="userSpaceOnUse" color-interpolation-filters="sRGB">
      <feFlood flood-opacity="0" result="BackgroundImageFix"/>
      <feColorMatrix in="SourceAlpha" type="matrix" values="0 0 0 0 0 0 0 0 0 0 0 0 0 0 0 0 0 0 127 0" result="hardAlpha"/>
      <feOffset dy="18"/>
      <feGaussianBlur stdDeviation="26"/>
      <feComposite in2="hardAlpha" operator="out"/>
      <feColorMatrix type="matrix" values="0 0 0 0 0.0980392 0 0 0 0 0.0862745 0 0 0 0 0.0745098 0 0 0 0.28 0"/>
      <feBlend mode="normal" in2="BackgroundImageFix" result="effect1_dropShadow_0_1"/>
      <feBlend mode="normal" in="SourceGraphic" in2="effect1_dropShadow_0_1" result="shape"/>
    </filter>
  </defs>
</svg>
